<svg width="131" height="22" viewBox="0 0 131 22" fill="none" xmlns="http://www.w3.org/2000/svg">
<path d="M3.292 18.424H9.872V21H0.1V1.54H3.292V18.424ZM26.1214 12.908C26.1214 13.4867 26.0841 14.0093 26.0094 14.476H14.2214C14.3147 15.708 14.7721 16.6973 15.5934 17.444C16.4147 18.1907 17.4227 18.564 18.6174 18.564C20.3347 18.564 21.5481 17.8453 22.2574 16.408H25.7014C25.2347 17.8267 24.3854 18.9933 23.1534 19.908C21.9401 20.804 20.4281 21.252 18.6174 21.252C17.1427 21.252 15.8174 20.9253 14.6414 20.272C13.4841 19.6 12.5694 18.6667 11.8974 17.472C11.2441 16.2587 10.9174 14.8587 10.9174 13.272C10.9174 11.6853 11.2347 10.2947 11.8694 9.1C12.5227 7.88667 13.4281 6.95333 14.5854 6.3C15.7614 5.64667 17.1054 5.32 18.6174 5.32C20.0734 5.32 21.3707 5.63733 22.5094 6.272C23.6481 6.90667 24.5347 7.80267 25.1694 8.96C25.8041 10.0987 26.1214 11.4147 26.1214 12.908ZM22.7894 11.9C22.7707 10.724 22.3507 9.78133 21.5294 9.072C20.7081 8.36267 19.6907 8.008 18.4774 8.008C17.3761 8.008 16.4334 8.36267 15.6494 9.072C14.8654 9.76267 14.3987 10.7053 14.2494 11.9H22.7894ZM27.6387 13.216C27.6387 11.6667 27.956 10.2947 28.5907 9.1C29.244 7.90533 30.1213 6.98133 31.2227 6.328C32.3427 5.656 33.5747 5.32 34.9187 5.32C36.132 5.32 37.1867 5.56267 38.0827 6.048C38.9973 6.51467 39.7253 7.10267 40.2667 7.812V5.572H43.4867V21H40.2667V18.704C39.7253 19.432 38.988 20.0387 38.0547 20.524C37.1213 21.0093 36.0573 21.252 34.8627 21.252C33.5373 21.252 32.324 20.916 31.2227 20.244C30.1213 19.5533 29.244 18.6013 28.5907 17.388C27.956 16.156 27.6387 14.7653 27.6387 13.216ZM40.2667 13.272C40.2667 12.208 40.0427 11.284 39.5947 10.5C39.1653 9.716 38.596 9.11867 37.8867 8.708C37.1773 8.29733 36.412 8.092 35.5907 8.092C34.7693 8.092 34.004 8.29733 33.2947 8.708C32.5853 9.1 32.0067 9.688 31.5587 10.472C31.1293 11.2373 30.9147 12.152 30.9147 13.216C30.9147 14.28 31.1293 15.2133 31.5587 16.016C32.0067 16.8187 32.5853 17.4347 33.2947 17.864C34.0227 18.2747 34.788 18.48 35.5907 18.48C36.412 18.48 37.1773 18.2747 37.8867 17.864C38.596 17.4533 39.1653 16.856 39.5947 16.072C40.0427 15.2693 40.2667 14.336 40.2667 13.272ZM46.0552 13.216C46.0552 11.6667 46.3726 10.2947 47.0072 9.1C47.6606 7.90533 48.5379 6.98133 49.6392 6.328C50.7592 5.656 52.0006 5.32 53.3632 5.32C54.3712 5.32 55.3606 5.544 56.3312 5.992C57.3206 6.42133 58.1046 7 58.6832 7.728V0.28H61.9032V21H58.6832V18.676C58.1606 19.4227 57.4326 20.0387 56.4992 20.524C55.5846 21.0093 54.5299 21.252 53.3352 21.252C51.9912 21.252 50.7592 20.916 49.6392 20.244C48.5379 19.5533 47.6606 18.6013 47.0072 17.388C46.3726 16.156 46.0552 14.7653 46.0552 13.216ZM58.6832 13.272C58.6832 12.208 58.4592 11.284 58.0112 10.5C57.5819 9.716 57.0126 9.11867 56.3032 8.708C55.5939 8.29733 54.8286 8.092 54.0072 8.092C53.1859 8.092 52.4206 8.29733 51.7112 8.708C51.0019 9.1 50.4232 9.688 49.9752 10.472C49.5459 11.2373 49.3312 12.152 49.3312 13.216C49.3312 14.28 49.5459 15.2133 49.9752 16.016C50.4232 16.8187 51.0019 17.4347 51.7112 17.864C52.4392 18.2747 53.2046 18.48 54.0072 18.48C54.8286 18.48 55.5939 18.2747 56.3032 17.864C57.0126 17.4533 57.5819 16.856 58.0112 16.072C58.4592 15.2693 58.6832 14.336 58.6832 13.272ZM64.7238 13.356C65.0038 11.7693 65.5638 10.388 66.4038 9.212C67.2625 8.01733 68.3078 7.10267 69.5398 6.468C70.7718 5.81467 72.1065 5.488 73.5438 5.488C75.4291 5.488 76.8945 5.95467 77.9398 6.888C79.0038 7.82133 79.5731 9.09067 79.6478 10.696H77.5478C77.4918 9.59467 77.0811 8.736 76.3158 8.12C75.5691 7.48533 74.5518 7.168 73.2638 7.168C71.6771 7.168 70.2771 7.70933 69.0638 8.792C67.8691 9.856 67.0945 11.3773 66.7398 13.356C66.6465 13.8227 66.5998 14.3547 66.5998 14.952C66.5998 16.4453 67.0011 17.5933 67.8038 18.396C68.6251 19.18 69.7078 19.572 71.0518 19.572C72.3585 19.572 73.4971 19.264 74.4678 18.648C75.4385 18.0133 76.1571 17.136 76.6238 16.016H78.7238C78.0891 17.584 77.0718 18.844 75.6718 19.796C74.2718 20.748 72.6385 21.224 70.7718 21.224C68.8865 21.224 67.3745 20.6827 66.2358 19.6C65.1158 18.5173 64.5558 17.0333 64.5558 15.148C64.5558 14.5693 64.6118 13.972 64.7238 13.356ZM86.5157 0.28L82.8477 21H80.8877L84.5557 0.28H86.5157ZM87.1741 13.328C87.4541 11.76 88.0141 10.388 88.8541 9.212C89.6941 8.01733 90.7208 7.10267 91.9341 6.468C93.1661 5.81467 94.4821 5.488 95.8821 5.488C97.3381 5.488 98.5328 5.824 99.4661 6.496C100.399 7.168 101.006 8.02667 101.286 9.072L101.874 5.712H103.834L101.146 21H99.1861L99.7741 17.612C99.1394 18.6573 98.2248 19.5253 97.0301 20.216C95.8541 20.888 94.5381 21.224 93.0821 21.224C91.8688 21.224 90.8048 20.972 89.8901 20.468C88.9754 19.964 88.2661 19.2547 87.7621 18.34C87.2581 17.4067 87.0061 16.3147 87.0061 15.064C87.0061 14.5227 87.0621 13.944 87.1741 13.328ZM100.53 13.356C100.623 12.8333 100.67 12.3667 100.67 11.956C100.67 10.5 100.231 9.34267 99.3541 8.484C98.4768 7.62533 97.3381 7.196 95.9381 7.196C94.8554 7.196 93.8381 7.43867 92.8861 7.924C91.9528 8.40933 91.1594 9.11867 90.5061 10.052C89.8528 10.9667 89.4141 12.0587 89.1901 13.328C89.0968 13.888 89.0501 14.364 89.0501 14.756C89.0501 16.2307 89.4794 17.3973 90.3381 18.256C91.2154 19.096 92.3541 19.516 93.7541 19.516C94.7994 19.516 95.7981 19.264 96.7501 18.76C97.7208 18.256 98.5328 17.5373 99.1861 16.604C99.8581 15.6707 100.306 14.588 100.53 13.356ZM110.157 21.224C108.607 21.224 107.347 20.8693 106.377 20.16C105.406 19.432 104.921 18.4427 104.921 17.192C104.921 16.968 104.93 16.8 104.949 16.688H106.853C106.778 17.584 107.039 18.3027 107.637 18.844C108.234 19.3853 109.111 19.656 110.269 19.656C111.445 19.656 112.387 19.4133 113.097 18.928C113.806 18.424 114.161 17.7613 114.161 16.94C114.161 16.4547 114.011 16.044 113.713 15.708C113.414 15.372 113.041 15.1013 112.593 14.896C112.163 14.672 111.557 14.42 110.773 14.14C109.802 13.7853 109.018 13.4587 108.421 13.16C107.842 12.8427 107.338 12.4133 106.909 11.872C106.498 11.312 106.293 10.612 106.293 9.772C106.293 8.932 106.535 8.18533 107.021 7.532C107.506 6.87867 108.169 6.37467 109.009 6.02C109.867 5.66533 110.838 5.488 111.921 5.488C113.433 5.488 114.665 5.86133 115.617 6.608C116.587 7.35467 117.073 8.344 117.073 9.576C117.073 9.83733 117.063 10.0333 117.045 10.164H115.197C115.215 10.0893 115.225 9.968 115.225 9.8C115.225 8.97867 114.898 8.316 114.245 7.812C113.61 7.308 112.789 7.056 111.781 7.056C110.773 7.056 109.933 7.29867 109.261 7.784C108.607 8.25067 108.281 8.88533 108.281 9.688C108.281 10.2293 108.439 10.6867 108.757 11.06C109.074 11.4147 109.466 11.704 109.933 11.928C110.399 12.152 111.025 12.4133 111.809 12.712C112.742 13.0667 113.489 13.3933 114.049 13.692C114.627 13.9907 115.113 14.4013 115.505 14.924C115.897 15.4467 116.093 16.1 116.093 16.884C116.093 18.2093 115.542 19.264 114.441 20.048C113.339 20.832 111.911 21.224 110.157 21.224ZM123.87 21.224C122.321 21.224 121.061 20.8693 120.09 20.16C119.119 19.432 118.634 18.4427 118.634 17.192C118.634 16.968 118.643 16.8 118.662 16.688H120.566C120.491 17.584 120.753 18.3027 121.35 18.844C121.947 19.3853 122.825 19.656 123.982 19.656C125.158 19.656 126.101 19.4133 126.81 18.928C127.519 18.424 127.874 17.7613 127.874 16.94C127.874 16.4547 127.725 16.044 127.426 15.708C127.127 15.372 126.754 15.1013 126.306 14.896C125.877 14.672 125.27 14.42 124.486 14.14C123.515 13.7853 122.731 13.4587 122.134 13.16C121.555 12.8427 121.051 12.4133 120.622 11.872C120.211 11.312 120.006 10.612 120.006 9.772C120.006 8.932 120.249 8.18533 120.734 7.532C121.219 6.87867 121.882 6.37467 122.722 6.02C123.581 5.66533 124.551 5.488 125.634 5.488C127.146 5.488 128.378 5.86133 129.33 6.608C130.301 7.35467 130.786 8.344 130.786 9.576C130.786 9.83733 130.777 10.0333 130.758 10.164H128.91C128.929 10.0893 128.938 9.968 128.938 9.8C128.938 8.97867 128.611 8.316 127.958 7.812C127.323 7.308 126.502 7.056 125.494 7.056C124.486 7.056 123.646 7.29867 122.974 7.784C122.321 8.25067 121.994 8.88533 121.994 9.688C121.994 10.2293 122.153 10.6867 122.47 11.06C122.787 11.4147 123.179 11.704 123.646 11.928C124.113 12.152 124.738 12.4133 125.522 12.712C126.455 13.0667 127.202 13.3933 127.762 13.692C128.341 13.9907 128.826 14.4013 129.218 14.924C129.61 15.4467 129.806 16.1 129.806 16.884C129.806 18.2093 129.255 19.264 128.154 20.048C127.053 20.832 125.625 21.224 123.87 21.224Z" fill="white"/>
</svg>
